<svg width="40" height="40" viewBox="0 0 40 40" fill="none" xmlns="http://www.w3.org/2000/svg">
<path d="M3.33325 30H14.9999V33.3333H3.33325V30ZM3.33325 18.3333H18.3333V21.6666H3.33325V18.3333ZM3.33325 6.66663H36.6666V9.99996H3.33325V6.66663ZM34.4566 21.7083L36.3833 21.0566L38.0499 23.9433L36.5233 25.285C36.7156 26.196 36.7156 27.1372 36.5233 28.0483L38.0499 29.39L36.3833 32.2766L34.4566 31.625C33.7647 32.248 32.95 32.7193 32.0649 33.0083L31.6666 35H28.3333L27.9333 33.0066C27.0487 32.7175 26.2346 32.2463 25.5433 31.6233L23.6166 32.2766L21.9499 29.39L23.4766 28.0483C23.2843 27.1372 23.2843 26.196 23.4766 25.285L21.9499 23.9433L23.6166 21.0566L25.5433 21.7083C26.2266 21.0916 27.0399 20.6166 27.9349 20.325L28.3333 18.3333H31.6666L32.0666 20.3266C32.9513 20.6154 33.7655 21.0867 34.4566 21.71M29.9999 28.3333C30.4419 28.3333 30.8659 28.1577 31.1784 27.8451C31.491 27.5326 31.6666 27.1087 31.6666 26.6666C31.6666 26.2246 31.491 25.8007 31.1784 25.4881C30.8659 25.1756 30.4419 25 29.9999 25C29.5579 25 29.134 25.1756 28.8214 25.4881C28.5088 25.8007 28.3333 26.2246 28.3333 26.6666C28.3333 27.1087 28.5088 27.5326 28.8214 27.8451C29.134 28.1577 29.5579 28.3333 29.9999 28.3333Z" fill="black"/>
</svg>
