<svg width="40" height="40" viewBox="0 0 40 40" fill="none" xmlns="http://www.w3.org/2000/svg">
<path fill-rule="evenodd" clip-rule="evenodd" d="M20 22.5001C21.7682 22.5001 23.4638 21.7977 24.7141 20.5475C25.9643 19.2972 26.6667 17.6015 26.6667 15.8334C26.6667 14.0653 25.9643 12.3696 24.7141 11.1194C23.4638 9.86913 21.7682 9.16675 20 9.16675C18.2319 9.16675 16.5362 9.86913 15.286 11.1194C14.0358 12.3696 13.3334 14.0653 13.3334 15.8334C13.3334 17.6015 14.0358 19.2972 15.286 20.5475C16.5362 21.7977 18.2319 22.5001 20 22.5001ZM20 20.8334C20.6567 20.8334 21.3068 20.7041 21.9135 20.4528C22.5201 20.2015 23.0713 19.8332 23.5356 19.3689C23.9999 18.9047 24.3682 18.3535 24.6194 17.7468C24.8707 17.1402 25 16.49 25 15.8334C25 15.1768 24.8707 14.5266 24.6194 13.92C24.3682 13.3134 23.9999 12.7622 23.5356 12.2979C23.0713 11.8336 22.5201 11.4653 21.9135 11.214C21.3068 10.9627 20.6567 10.8334 20 10.8334C18.674 10.8334 17.4022 11.3602 16.4645 12.2979C15.5268 13.2356 15 14.5073 15 15.8334C15 17.1595 15.5268 18.4313 16.4645 19.3689C17.4022 20.3066 18.674 20.8334 20 20.8334Z" fill="black"/>
<path fill-rule="evenodd" clip-rule="evenodd" d="M36.6667 20C36.6667 29.205 29.205 36.6667 20 36.6667C10.795 36.6667 3.33337 29.205 3.33337 20C3.33337 10.795 10.795 3.33337 20 3.33337C29.205 3.33337 36.6667 10.795 36.6667 20ZM28.025 32.675C25.6258 34.198 22.8418 35.0046 20 35C17.0904 35.0045 14.2429 34.1588 11.8075 32.5667C11.6075 32.3167 11.4042 32.0584 11.1992 31.7917C10.961 31.4793 10.8324 31.0971 10.8334 30.7042C10.8334 29.8067 11.4784 29.0542 12.3409 28.9284C18.045 28.095 21.9725 28.1667 27.6842 28.9575C28.0978 29.0175 28.4758 29.2251 28.7483 29.542C29.0208 29.8589 29.1694 30.2638 29.1667 30.6817C29.1667 31.0817 29.0292 31.47 28.7809 31.7734C28.525 32.085 28.2725 32.3859 28.025 32.675ZM30.8209 30.3884C30.6875 28.8284 29.5034 27.5267 27.9125 27.3067C22.0659 26.4975 17.9792 26.42 12.1 27.2792C10.5 27.5125 9.32087 28.8259 9.18087 30.39C6.49364 27.5993 4.99474 23.8743 5.00004 20C5.00004 11.7159 11.7159 5.00004 20 5.00004C28.2842 5.00004 35 11.7159 35 20C35.0054 23.8735 33.5071 27.5977 30.8209 30.3884Z" fill="black"/>
</svg>
